<svg id="Layer_1" enable-background="new 0 0 480.106 480.106" height="512" viewBox="0 0 480.106 480.106" width="512" xmlns="http://www.w3.org/2000/svg"><g><path d="m222.341 242.88 14.884 14.884c1.562 1.562 4.095 1.562 5.657 0l14.884-14.884c1.562-1.562 1.562-4.095 0-5.657l-14.884-14.884c-1.562-1.562-4.095-1.562-5.657 0l-14.884 14.884c-1.562 1.562-1.562 4.095 0 5.657z"/><path d="m336.487 242.88 14.884 14.884c1.562 1.562 4.095 1.562 5.657 0l14.884-14.884c1.562-1.562 1.562-4.095 0-5.657l-14.884-14.884c-1.562-1.562-4.095-1.562-5.657 0l-14.884 14.884c-1.563 1.562-1.563 4.095 0 5.657z"/><path d="m108.196 242.88 14.884 14.884c1.562 1.562 4.095 1.562 5.657 0l14.884-14.884c1.562-1.562 1.562-4.095 0-5.657l-14.884-14.884c-1.562-1.562-4.095-1.562-5.657 0l-14.884 14.884c-1.563 1.562-1.563 4.095 0 5.657z"/><path d="m245.711 327.999c-3.123 3.122-8.19 3.125-11.314 0l-48.588-48.588c-1.562-1.562-4.095-1.562-5.657 0l-14.884 14.884c-1.562 1.562-1.562 4.095 0 5.657l71.956 71.957c1.562 1.562 4.095 1.562 5.657 0l71.957-71.957c1.562-1.562 1.562-4.095 0-5.657l-14.885-14.884c-1.562-1.562-4.095-1.562-5.657 0z"/><path d="m409.764 70.341c-93.772-93.772-245.817-93.862-339.6.17-93.53 93.778-93.624 245.446.18 339.25 93.793 93.793 245.762 93.845 339.56-.16 93.578-93.785 93.664-245.455-.14-339.26zm-169.71 367.71c-109.178 0-198-88.823-198-198s88.822-198 198-198c104.722 0 190.913 81.414 197.586 185.098 7.37 116.134-84.768 210.902-197.586 210.902z"/><path d="m240.054 58.051c-100.355 0-182 81.645-182 182s81.645 182 182 182c104.584 0 188.347-87.865 181.618-193.882-6.139-95.39-85.915-170.118-181.618-170.118zm-94.584 119.271 88.927-88.927c3.125-3.125 8.19-3.124 11.314 0l88.928 88.927c3.122 3.123 3.123 8.19 0 11.314l-31.855 31.854c-3.125 3.125-8.189 3.124-11.314 0l-48.587-48.587c-1.562-1.562-4.095-1.562-5.657 0l-48.588 48.587c-3.124 3.124-8.189 3.125-11.313 0l-31.854-31.854c-3.126-3.125-3.126-8.19-.001-11.314zm132.095 68.386-31.854 31.854c-3.124 3.124-8.189 3.125-11.314 0l-31.854-31.854c-3.125-3.124-3.125-8.19 0-11.314l31.854-31.854c3.125-3.125 8.19-3.124 11.314 0l31.854 31.854c3.124 3.125 3.124 8.19 0 11.314zm-157.314 31.855-31.854-31.854c-3.125-3.124-3.125-8.19 0-11.314l31.854-31.854c3.124-3.125 8.189-3.125 11.313 0l31.854 31.854c3.125 3.124 3.125 8.19 0 11.314l-31.854 31.854c-3.123 3.124-8.189 3.124-11.313 0zm214.388 25.218-88.928 88.927c-3.125 3.123-8.19 3.125-11.314 0l-88.927-88.927c-3.125-3.124-3.125-8.189 0-11.314l31.854-31.854c3.124-3.125 8.189-3.125 11.313 0l48.588 48.587c1.562 1.562 4.095 1.562 5.657 0l48.587-48.587c3.124-3.124 8.188-3.125 11.314 0l31.855 31.854c3.122 3.123 3.124 8.19.001 11.314zm57.072-57.073-31.854 31.854c-3.125 3.124-8.189 3.125-11.314 0l-31.854-31.854c-3.124-3.124-3.124-8.19 0-11.314l31.854-31.854c3.125-3.125 8.189-3.125 11.314 0l31.854 31.854c3.124 3.125 3.124 8.19 0 11.314z"/><path d="m234.397 152.103c3.121-3.122 8.189-3.124 11.314 0l48.587 48.587c1.562 1.562 4.095 1.562 5.657 0l14.885-14.884c1.562-1.562 1.562-4.095 0-5.657l-71.957-71.957c-1.562-1.562-4.095-1.562-5.657 0l-71.956 71.957c-1.562 1.562-1.562 4.095 0 5.657l14.884 14.884c1.562 1.562 4.095 1.562 5.657 0z"/></g></svg>