<svg id="Icons" enable-background="new 0 0 512 512" height="512" viewBox="0 0 512 512" width="512" xmlns="http://www.w3.org/2000/svg"><g><circle cx="256" cy="256" fill="#22bce0" r="256"/><g><g><g><path d="m370.436 201.579h-271.789c0-6.88 1.659-13.367 4.583-19.098 2.01-3.935 4.626-7.497 7.709-10.591 7.178-7.167 16.94-11.761 27.765-12.25.638-.032 1.276-.043 1.925-.043h187.814c10.857 0 20.768 4.126 28.222 10.9h.011c8.454 7.687 13.76 18.768 13.76 31.082z" fill="#a26d5a"/><path d="m410.174 241.328v142.578c0 8.72-2.807 16.77-7.56 23.32-7.22 9.953-18.949 16.419-32.178 16.419h-232.05c-9.592 0-18.386-3.392-25.255-9.06-8.847-7.284-14.483-18.322-14.483-30.678v-182.328c0-6.88 1.659-13.367 4.583-19.098 2.01-3.935 4.626-7.497 7.709-10.591.914-.904 1.861-1.776 2.85-2.595 7.274-6.051 16.631-9.698 26.84-9.698h187.814c10.857 0 20.768 4.126 28.222 10.9-7.869 7.433-18.471 11.984-30.136 11.984h-168.727c-5.274 0-10.049 2.137-13.505 5.593s-5.593 8.231-5.593 13.505h231.731c17.312 0 32.04 11.07 37.484 26.521 1.457 4.136 2.254 8.591 2.254 13.228z" fill="#d48d77"/><path d="m372.051 201.611c17.14.685 16.36 26.488-.793 26.488h-206.033c-7.327 0-13.962-2.967-18.758-7.763-4.796-4.806-7.763-11.431-7.763-18.758h231.731c.542.001 1.08.012 1.616.033z" fill="#eea47d"/><path d="m360.493 383.905h-236.931v-191.078c0-9.198-3.732-17.524-9.772-23.533-.989.819-1.935 1.691-2.85 2.595-3.084 3.094-5.7 6.657-7.709 10.591-2.924 5.732-4.583 12.218-4.583 19.098v182.327c0 12.356 5.636 23.394 14.483 30.678 6.869 5.668 15.664 9.06 25.255 9.06h232.05c13.229 0 24.958-6.465 32.178-16.419-8.794-14.003-24.373-23.319-42.121-23.319z" fill="#c17e62"/><path d="m315.087 182.48h-164.94c-6.319 0-11.442-5.123-11.442-11.442 0-6.319 5.123-11.442 11.442-11.442h164.941c6.319 0 11.442 5.123 11.442 11.442-.001 6.32-5.124 11.442-11.443 11.442z" fill="#eea47d"/><path d="m410.174 383.905v-142.578c-21.251 0-38.478 17.227-38.478 38.478v65.622c.001 21.251 17.228 38.478 38.478 38.478z" fill="#eea47d"/><g><g><g><path d="m134.662 411.415h-10.67c-2.055 0-3.722-1.666-3.722-3.722s1.667-3.722 3.722-3.722h10.67c2.055 0 3.722 1.666 3.722 3.722s-1.667 3.722-3.722 3.722z" fill="#3f5d77"/></g><g><path d="m330.614 411.415h-21.772c-2.055 0-3.722-1.666-3.722-3.722s1.667-3.722 3.722-3.722h21.772c2.055 0 3.722 1.666 3.722 3.722s-1.667 3.722-3.722 3.722zm-65.317 0h-21.772c-2.055 0-3.722-1.666-3.722-3.722s1.667-3.722 3.722-3.722h21.772c2.055 0 3.722 1.666 3.722 3.722s-1.667 3.722-3.722 3.722zm-65.317 0h-21.772c-2.055 0-3.722-1.666-3.722-3.722s1.667-3.722 3.722-3.722h21.772c2.055 0 3.722 1.666 3.722 3.722s-1.667 3.722-3.722 3.722z" fill="#3f5d77"/></g><g><path d="m384.829 411.415h-10.67c-2.055 0-3.722-1.666-3.722-3.722s1.667-3.722 3.722-3.722h10.67c2.055 0 3.722 1.666 3.722 3.722s-1.667 3.722-3.722 3.722z" fill="#3f5d77"/></g></g><g><g><path d="m134.662 221.251h-10.67c-2.055 0-3.722-1.666-3.722-3.722s1.667-3.722 3.722-3.722h10.67c2.055 0 3.722 1.666 3.722 3.722s-1.667 3.722-3.722 3.722z" fill="#3f5d77"/></g><g><path d="m330.614 221.251h-21.772c-2.055 0-3.722-1.666-3.722-3.722s1.667-3.722 3.722-3.722h21.772c2.055 0 3.722 1.666 3.722 3.722s-1.667 3.722-3.722 3.722zm-65.317 0h-21.772c-2.055 0-3.722-1.666-3.722-3.722s1.667-3.722 3.722-3.722h21.772c2.055 0 3.722 1.666 3.722 3.722s-1.667 3.722-3.722 3.722zm-65.317 0h-21.772c-2.055 0-3.722-1.666-3.722-3.722s1.667-3.722 3.722-3.722h21.772c2.055 0 3.722 1.666 3.722 3.722s-1.667 3.722-3.722 3.722z" fill="#3f5d77"/></g><g><path d="m384.829 221.251h-10.67c-2.055 0-3.722-1.666-3.722-3.722s1.667-3.722 3.722-3.722h10.67c2.055 0 3.722 1.666 3.722 3.722s-1.667 3.722-3.722 3.722z" fill="#3f5d77"/></g></g></g></g><g><g><path d="m446.556 284.254h-103.08c-9.36 0-16.947 7.588-16.947 16.947v22.094c0 9.36 7.588 16.947 16.947 16.947h103.079c9.36 0 16.947-7.588 16.947-16.947v-22.094c.001-9.359-7.587-16.947-16.946-16.947z" fill="#c17e62"/><path d="m446.29 291.62h-102.548c-3.951 0-7.154 3.203-7.154 7.154 0 3.951 3.203 7.154 7.154 7.154h102.548c3.951 0 7.154-3.203 7.154-7.154 0-3.951-3.203-7.154-7.154-7.154z" fill="#d48d77"/></g><g><path d="m378.922 312.617v.053c-.032 8.539-6.965 15.451-15.504 15.451-8.571 0-15.515-6.944-15.515-15.504 0-8.528 6.891-15.451 15.419-15.504h.096c1.074 0 2.116.106 3.126.319 5.232 1.063 9.496 4.775 11.368 9.666.648 1.712 1.01 3.573 1.01 5.519z" fill="#334353"/><path d="m378.922 312.617v.053c-1.627 4.87-6.232 8.379-11.644 8.379-6.795 0-12.293-5.508-12.293-12.293 0-5.402 3.488-9.996 8.337-11.644h.096c8.56.001 15.504 6.944 15.504 15.505z" fill="#3e4e60"/><path d="m377.912 307.098c-.819 3.828-4.222 6.699-8.294 6.699-4.679 0-8.475-3.796-8.475-8.475 0-3.594 2.244-6.657 5.402-7.89 5.231 1.063 9.495 4.774 11.367 9.666z" fill="#3f5d77"/></g></g></g><g><g><g><path d="m270.143 65.798v135.78h-85.794c-.726-.913-1.465-1.833-2.118-2.796-.447-.641-.883-1.284-1.307-1.927-.019-.01-.029-.029-.029-.038-6.645-10.036-10.215-22.096-10.19-34.148.037-2.036-.101-37.121.105-38.184.285-5.141 1.237-10.265 2.786-15.17h.01c1.16-3.716 2.683-7.287 4.503-10.658 1.018-1.968 2.198-3.837 3.444-5.667v-.01c2.062-2.969 4.332-5.798 6.879-8.368 0-.029.01-.029.01-.01.009-.029.009-.038.019-.029.01-.029.019-.038.029-.029.954-1.002 1.939-1.918 2.958-2.843h.01c9.04-8.156 20.693-13.627 32.812-15.285 5.866-1.172 39.312-.42 45.873-.618z" fill="#f39e22"/><g><path d="m170.701 136.915h65.73v16.961h-65.73z" fill="#ea792e"/><path d="m170.701 136.915h65.73v6.658h-65.73z" fill="#dd5e26"/></g><g><path d="m236.431 164.526v16.956h-62.833c-1.726-5.425-2.701-11.192-2.864-16.956z" fill="#ea792e"/><path d="m236.431 164.526v6.652h-65.146c-.303-2.181-.49-4.4-.551-6.652z" fill="#dd5e26"/></g><g><path d="m252.406 192.132v9.446h-68.057c-.726-.913-1.465-1.833-2.118-2.796-.448-.648-.897-1.295-1.317-1.946-1.03-1.512-1.936-3.102-2.815-4.704z" fill="#ea792e"/><path d="m252.406 192.132v6.652h-70.174c-1.514-2.12-2.897-4.345-4.136-6.652z" fill="#dd5e26"/></g><g><path d="m236.431 109.309v16.956h-65.702c.12-5.754 1.214-11.501 2.869-16.956z" fill="#ea792e"/><path d="m236.431 109.309v6.652h-64.54c.237-1.489 1.3-5.151 1.707-6.652z" fill="#dd5e26"/></g><g><path d="m253.007 81.698v16.961h-74.915c3.432-6.378 7.968-12.134 13.36-16.961z" fill="#ea792e"/><path d="m253.007 81.698v6.652h-67.96c1.966-2.373 4.108-4.598 6.404-6.652z" fill="#dd5e26"/></g><g><path d="m265.827 68.349v2.698h-57.866c7.671-3.381 16.157-5.254 25.084-5.254h15.072c6.151.001 12.098.893 17.71 2.556z" fill="#ea792e"/></g></g><path d="m336.148 128.13v34.529c.05 14.163-4.912 28.1-13.653 38.918h-112.462c-.735-.906-1.431-1.841-2.109-2.786 0 0 0-.01-.01-.01-7.452-10.455-11.558-23.216-11.516-36.113.301-9.031-.916-38.295 1.183-46.704 1.202-6.046 3.302-11.936 6.221-17.308 1.04-1.956 2.195-3.845 3.444-5.667v-.009c.288-.424.582-.835.887-1.25 0 0-.01-.01.01-.01.162-.229.334-.468.515-.697-.005-.029.025-.053.048-.076 0-.019.019-.038.048-.057 0-.019.01-.038.038-.057 0 0-.01-.01.019-.01-.019-.01-.01-.019.01-.029.309-.416.62-.845.964-1.25 1.171-1.492 2.415-2.937 3.74-4.322 1.155-1.217 2.373-2.393 3.616-3.521h.01c9.961-8.979 22.898-14.591 36.275-15.676 0 0 .01-.01.019 0 .01-.01.01 0 .01 0s.01-.01.019 0c3.604-.406 16.51-.17 20.342-.229 34.425.002 62.332 27.909 62.332 62.334z" fill="#f9c744"/><path d="m336.152 128.129v34.533c0 5.25-.65 10.347-1.874 15.219-57.655 19.926-116.548-23.087-127.034-84.897 11.225-16.417 30.102-27.19 51.493-27.19h15.075c34.431 0 62.34 27.909 62.34 62.335z" fill="#fad98f"/><path d="m291.359 96.027c-3.746 2.365-4.865 7.318-2.501 11.064l14.071 22.291c2.365 3.746 7.318 4.865 11.064 2.501 3.746-2.365 4.865-7.318 2.501-11.064l-14.071-22.291c-2.365-3.746-7.319-4.866-11.064-2.501z" fill="#faefdc"/><g><path d="m273.148 72.763h-13.749c-19.591.029-37.276 9.866-47.696 25.895-.01 0-.01.01-.01.01-5.392 8.222-8.503 17.744-9.093 27.603-.067 1.116-.096 2.242-.096 3.378v31.505c-.063 15.059 6.147 29.922 16.878 40.426h4.007c-11.667-10.2-18.571-25.471-18.491-41.008.035-2.326-.124-32.984.143-34.301.712-9.938 4.116-19.528 9.875-27.602 0 0 0-.01.009-.01 10.212-14.431 26.718-23.178 44.729-23.175h13.233c30.246 0 54.766 24.511 54.766 54.747v30.341c.076 15.588-6.874 30.841-18.5 41.008h4.017c10.666-10.478 16.928-25.3 16.869-40.426v-31.505c.003-31.421-25.472-56.886-56.891-56.886z" fill="#dd5e26"/><path d="m272.891 75.482h-13.233c-18.007-.002-34.521 8.743-44.729 23.175-.009 0-.009.01-.009.01-5.76 8.075-9.163 17.664-9.875 27.603-.238 1.261-.121 32.046-.143 34.301-.08 15.536 6.824 30.809 18.491 41.008h10.963c-14.569-8.8-23.928-25.328-23.786-42.411.1-3.909-.276-29.583.296-32.898.633-5.978 2.32-11.667 4.999-16.964 8.173-16.537 25.843-27.513 44.405-27.364h12.012c27.45 0 49.7 22.25 49.7 49.69-.323 8.573 1.036 31.625-1.488 39.663-3.123 12.566-11.299 23.596-22.317 30.284h10.982c11.628-10.168 18.575-25.42 18.5-41.008v-30.341c-.002-30.237-24.523-54.748-54.768-54.748z" fill="#ea792e"/></g></g><g><path d="m288.481 141.955h-.735c1.364-2.19 4.42-5.956 5.162-8.415.947-2.308.555-6.925.63-9.417.045-7.441-6.531-12.987-13.825-12.318v-14.512c0-2.366-1.918-4.294-4.294-4.294-.661.028-4.715-.079-5.276.086-1.956.41-3.416 2.137-3.416 4.208v14.512h-7.108v-14.512c0-2.366-1.918-4.294-4.294-4.294h-4.399c-2.366 0-4.294 1.927-4.294 4.294v14.512h-16.811c-2.318 0-4.208 1.841-4.274 4.16-.01.048-.01.086-.01.134v4.398c0 2.376 1.918 4.294 4.284 4.294h9.465v41.218h-9.465c-2.366 0-4.284 1.918-4.284 4.294v4.398c0 2.376 1.918 4.294 4.284 4.294h16.811v14.512c0 2.366 1.927 4.294 4.294 4.294h4.399c2.325.015 4.306-1.908 4.294-4.294v-14.512h7.108v14.512c0 2.07 1.46 3.797 3.416 4.208.537.163 4.64.058 5.276.086 2.33.01 4.306-1.912 4.293-4.294v-14.512h8.768c8.332.004 15.132-6.765 15.132-15.132v-6.774c.001-8.36-6.783-15.134-15.131-15.134zm-13.024-17.164c3.253-.024 5.547 2.911 5.2 6.059.013 2.906-2.393 5.227-5.2 5.2h-15.838v-11.259zm12.595 34.186c.008 3.922-3.212 7.058-7.032 7.032h-21.401v-15.219h21.401c4.417-.012 7.485 3.907 7.032 8.187z" fill="#dd5e26"/><path d="m284.817 147.346h-7.251c5.402-.006 9.998-3.466 11.659-8.349.985-2.331.582-6.959.658-9.484.045-7.445-6.537-12.99-13.835-12.318v-14.512c0-2.366-1.918-4.294-4.284-4.294-.407.012-4.755-.041-5.038.048v18.758h-10.762v-14.512c.012-2.383-1.985-4.3-4.294-4.294-.406.012-4.755-.042-5.038.048v18.758h-20.475c-.21 0-.42.019-.62.048v3.254c0 2.376 1.918 4.294 4.284 4.294h9.465v46.609h-13.129c-.21 0-.42.019-.62.048v3.254c0 2.376 1.918 4.294 4.284 4.294h16.811v14.512c0 2.366 1.927 4.294 4.294 4.294.416-.012 4.744.041 5.038-.048v-18.758h10.762v14.512c-.015 2.379 1.975 4.319 4.294 4.294.406-.013 4.746.043 5.028-.048v-18.758h12.432c4.017 0 7.681-1.565 10.39-4.141 1.531-3.154.992-8.916 1.078-12.375.001-8.36-6.773-15.134-15.131-15.134zm-28.852-22.555h19.493c3.252-.024 5.547 2.911 5.2 6.059 0 10.18-4.904 10.591-8.854 10.591h-15.838v-16.65zm32.087 34.186c0 10.028-2.433 12.423-10.686 12.423h-21.401v-20.61h25.055c4.417-.012 7.485 3.907 7.032 8.187z" fill="#ea792e"/></g></g></g></g></svg>